<?xml version="1.0" encoding="iso-8859-1"?>
<!-- Generator: Adobe Illustrator 19.0.0, SVG Export Plug-In . SVG Version: 6.00 Build 0)  -->
<svg version="1.1" id="Layer_1" xmlns="http://www.w3.org/2000/svg" xmlns:xlink="http://www.w3.org/1999/xlink" x="0px" y="0px"
	 viewBox="0 0 512 512" style="enable-background:new 0 0 512 512;" xml:space="preserve">
<path style="fill:#78B9EB;" d="M288,480l128-32l-16-48V240c0-70.693-57.307-128-128-128c-3.051,0-48,0-48,0v112c0,0,44.632,0,48,0
	c8.837,0,16,7.163,16,16V480z"/>
<rect x="112" y="352" style="fill:#5A8BB0;" width="256" height="48"/>
<rect x="256" y="352" style="fill:#1E2E3B;" width="112" height="48"/>
<polygon style="fill:#C9E3F7;" points="256,80 200,64 144,80 144,288 256,288 "/>
<polygon style="fill:#AED5F3;" points="256,80 200,64 200,288 256,288 "/>
<circle style="fill:#3C5D76;" cx="368" cy="352" r="64"/>
<circle style="fill:#1E2E3B;" cx="368" cy="352" r="32"/>
<path style="fill:#C9E3F7;" d="M432,448H144c-35.346,0-64,28.653-64,64h352V448z"/>
<rect x="256" y="448" style="fill:#AED5F3;" width="176" height="64"/>
<g>
	<polygon style="fill:#1E2E3B;" points="240,48 240,0 160,0 160,48 144,80 256,80 	"/>
	<rect x="112" y="272" style="fill:#1E2E3B;" width="176" height="48"/>
</g>
<g>
</g>
<g>
</g>
<g>
</g>
<g>
</g>
<g>
</g>
<g>
</g>
<g>
</g>
<g>
</g>
<g>
</g>
<g>
</g>
<g>
</g>
<g>
</g>
<g>
</g>
<g>
</g>
<g>
</g>
</svg>
